<?xml version="1.0" encoding="UTF-8" standalone="no"?>
<!-- Created with Inkscape (http://www.inkscape.org/) -->

<svg
   xmlns:dc="http://purl.org/dc/elements/1.1/"
   xmlns:cc="http://creativecommons.org/ns#"
   xmlns:rdf="http://www.w3.org/1999/02/22-rdf-syntax-ns#"
   xmlns:svg="http://www.w3.org/2000/svg"
   xmlns="http://www.w3.org/2000/svg"
   xmlns:sodipodi="http://sodipodi.sourceforge.net/DTD/sodipodi-0.dtd"
   xmlns:inkscape="http://www.inkscape.org/namespaces/inkscape"
   width="188"
   height="100"
   viewBox="0 0 49.741665 26.458333"
   version="1.1"
   id="svg8"
   inkscape:version="0.92.4 5da689c313, 2019-01-14"
   sodipodi:docname="squiggle2_full.svg">
  <defs
     id="defs2" />
  <sodipodi:namedview
     id="base"
     pagecolor="#ffffff"
     bordercolor="#666666"
     borderopacity="1.0"
     inkscape:pageopacity="0.0"
     inkscape:pageshadow="2"
     inkscape:zoom="5.0625837"
     inkscape:cx="90.157639"
     inkscape:cy="34.171599"
     inkscape:document-units="px"
     inkscape:current-layer="g4698"
     showgrid="false"
     units="px"
     inkscape:window-width="1920"
     inkscape:window-height="1037"
     inkscape:window-x="0"
     inkscape:window-y="20"
     inkscape:window-maximized="1" />
  <metadata
     id="metadata5">
    <rdf:RDF>
      <cc:Work
         rdf:about="">
        <dc:format>image/svg+xml</dc:format>
        <dc:type
           rdf:resource="http://purl.org/dc/dcmitype/StillImage" />
        <dc:title></dc:title>
      </cc:Work>
    </rdf:RDF>
  </metadata>
  <g
     inkscape:label="Layer 1"
     inkscape:groupmode="layer"
     id="layer1"
     transform="translate(0,-270.54167)">
    <g
       id="g4698"
       transform="translate(-6.3500003)">
      <path
         sodipodi:nodetypes="sscssssss"
         inkscape:connector-curvature="0"
         id="path92"
         d="m 26.386474,286.05817 c -0.0258,1.77695 2.320436,1.59059 2.09749,2.95722 -0.298949,1.83255 -2.120407,2.13518 -3.054872,2.03114 -1.659469,-0.0615 -4.080706,-1.84008 -4.084843,-4.12617 -0.0047,-2.56647 1.232259,-3.92718 1.691803,-4.98756 0.88643,-2.04542 -1.974896,-2.07628 -1.781989,-3.64056 0.227415,-1.84408 2.131747,-1.8829 3.17043,-1.78358 1.418527,0.13564 3.428309,1.47626 3.808676,3.56507 0.566544,3.11117 -1.822706,4.3322 -1.846695,5.98444 z"
         style="fill:#5555ee;stroke:#5555ee;stroke-width:1.28399742;stroke-linecap:butt;stroke-linejoin:round;stroke-miterlimit:4;stroke-dasharray:none;stroke-dashoffset:0;stroke-opacity:1;fill-opacity:1" />
      <path
         sodipodi:nodetypes="sscssssss"
         inkscape:connector-curvature="0"
         id="path92-3-6"
         d="m 38.82189,286.05817 c -0.0258,1.77695 2.320436,1.59059 2.097491,2.95722 -0.298949,1.83255 -2.120407,2.13518 -3.054872,2.03114 -1.659469,-0.0615 -4.080706,-1.84008 -4.084843,-4.12617 -0.0047,-2.56647 1.232259,-3.92718 1.691803,-4.98756 0.88643,-2.04542 -1.974896,-2.07628 -1.781989,-3.64056 0.227415,-1.84408 2.131747,-1.8829 3.17043,-1.78358 1.418527,0.13564 3.428308,1.47626 3.808675,3.56507 0.566545,3.11117 -1.822706,4.3322 -1.846695,5.98444 z"
         style="fill:#5555ee;stroke:#5555ee;stroke-width:1.28399742;stroke-linecap:butt;stroke-linejoin:round;stroke-miterlimit:4;stroke-dasharray:none;stroke-dashoffset:0;stroke-opacity:1;fill-opacity:1" />
    </g>
  </g>
  <g
     inkscape:groupmode="layer"
     id="layer2"
     inkscape:label="Layer 2" />
</svg>
